# xmcd
#
# Track frame offsets: 
#        150
#        25287
#        51144
#        66650
#        99801
#        125171
#        147436
#        161351
#        184826
#        217071
#        245937
#        301437
#
# Disc length: 4389 seconds
#
# Revision: 0
# Processed by: cddbd v1.5.2PL0 Copyright (c) Steve Scherf et al.
# Submitted via: ExactAudioCopy v1.0b1
#
DISCID=ba11230c
DTITLE=The Johnny Mannion Band - Bluer Than a Man Should Be
DYEAR=2010
DGENRE=Christian Rock
TTITLE0=Watch Out
TTITLE1=Bluer Than A Man Should Be
TTITLE2=Seas Run Dry
TTITLE3=Do Ya Ever Talk to Jesus
TTITLE4=What's a Man Supposed to Do
TTITLE5=Gonna Make Some Changes
TTITLE6=Can't Judge Nobody
TTITLE7=Can't Judge Nobody Live
TTITLE8=What's a Man Supposed to Do Live
TTITLE9=Bluer Than a Man Should Be Live
TTITLE10=Do Ya Ever Talk to Jesus Live
TTITLE11=Say A Prayer for Me Live
EXTD=
EXTT0=
EXTT1=
EXTT2=
EXTT3=
EXTT4=
EXTT5=
EXTT6=
EXTT7=
EXTT8=
EXTT9=
EXTT10=
EXTT11=
PLAYORDER=
